<?xml version="1.0" encoding="utf-8"?>
<!-- Generator: Adobe Illustrator 21.0.2, SVG Export Plug-In . SVG Version: 6.00 Build 0)  -->
<svg version="1.1" id="Layer_1" xmlns="http://www.w3.org/2000/svg" xmlns:xlink="http://www.w3.org/1999/xlink" x="0px" y="0px"
	 viewBox="0 0 450 406.7" style="enable-background:new 0 0 450 406.7;" xml:space="preserve">
<g>
	<g>
		<path d="M384.8,156.7c5.1-1.7,9.9-4.4,9.9-9c0-2.4-1.1-3.4-3.5-3.4c-2.8,0-5.8,2.2-7.5,3.9c-2.8,2.8-5.8,6.3-8.1,10.6
			C377.4,158.7,381.3,157.8,384.8,156.7 M389.8,172.2c-3.5,4.6-9,8.9-16,8.9c-5.3,0-8.4-3.8-8.4-8.6c0-15,16.5-30.8,27.6-30.8
			c3.8,0,6.5,1.4,6.5,5.4c0,5.9-5.2,9-14.3,11.8c-2.7,0.8-8.3,2-11,2.6c-1.2,2-2.9,6-2.9,9.2c0,4.3,2.2,6.8,6,6.8
			c4.5,0,8.8-3.5,11.2-6.3C389.3,170.5,390.4,171.5,389.8,172.2 M394.2,69.6c0.4,0,0.9-0.3,0.8-0.8l-1.6-11.2c-0.2-0.8-0.5-1-0.9-1
			c-0.3,0-0.6,0.2-0.8,0.7c-0.5,1-1.3,1.8-2.7,1.8c-2.5,0-4.9-1.8-10.8-1.8c-7.8,0-18.1,3.3-18.1,14.6s9,15,16.8,17.8
			c8.2,3,14.7,5.3,14.7,13.8c0,9.5-6.7,12.6-13,12.6c-7,0-15.3-3.3-18.2-14.5c-0.3-0.9-0.6-1.2-1.2-1.2s-1.1,0.4-1.1,1.4v14.3
			c0,0.8,0.5,1.3,1,1.3c0.3,0,0.8-0.2,1-0.7c0.6-0.8,1.3-1.6,2.8-1.6c3.2,0,6.9,3.8,16,3.8c8,0,21.6-2.5,21.6-18.3
			c0-6.3-2.6-14.3-17.8-18.6c-10.8-3-14.2-7.5-14.2-13c0-4.8,2.8-9.4,10.6-9.4c3.8,0,10.1,1.1,14.3,9.3
			C393.6,69.5,393.8,69.6,394.2,69.6 M347.9,66.8c-2.2,0-4.7-1.3-4.7-4.9c0-3.8,3-4.9,5.3-4.9c3.2,0,5.8,2.3,5.8,6.2
			c0,4.3-3.3,9.5-9,9.5c-0.6,0-0.8-0.4-0.8-0.8s0.3-0.7,0.6-0.8c3.9-0.8,5.4-3.3,5.5-4.9C350.2,66.6,349,66.8,347.9,66.8 M358,146.7
			c0,2.4-0.9,5.7-3,9.2c-3.9,6.4-7,7.6-9.7,7.6c-2.3,0-3.3-1.8-3.3-4.5c0-2.3,1-5.4,2.8-8.1c2.7-4.3,6.4-7.8,9.8-7.8
			C356.8,143.1,358,144.2,358,146.7 M339.7,196.4c-9.3,0-12-5.4-12-8c0-2.5,1-4.1,3.5-5.9c1.8-1.2,4.3-2.5,6.4-3.3
			c2.3,1,5.7,3,6.8,4c5,3.5,6,5.5,6,7.3C350.3,195.3,343.2,196.4,339.7,196.4 M368.8,145.2c1,0,1.9-0.5,1.9-2.3c0-1.5-1.4-2-2.8-2
			c-1.5,0-3.4,0.4-5.4,1.8c-0.5,0.4-1.8,1-2.5,0.5c-1.6-1.1-3-1.8-6.8-1.8s-9.3,2.3-12.8,7c-2.5,3.5-3,6-3,8.5s1,4.3,1.8,5.3
			c0.2,0.3,0.2,0.4,0.2,0.7c0,0.6-0.7,1-2,1.3c-2.3,0.8-6,2.9-6,6.8c0,2.5,2,4.9,4.3,6.4c0,0-4.6,1.3-8.3,3.3c-2.8,1.6-6,4-6,7.5
			c0,4,3.4,10.5,17.6,10.5c8.3,0,13.5-3,15.5-5.3c1.5-1.8,1.8-3.8,1.8-5c0-4.5-5-8.8-10.5-11.8c-3.5-2-8.7-4.4-8.7-8
			c0-0.9,0.2-1.9,1.3-2.5c0.7-0.5,1.8-0.8,2.9-0.8c1.6,0,3.6,0.5,5,0.5c4.5,0,10.6-1.5,14.4-9.5c1-2.3,1.4-4.5,1.4-6.4
			c0-2.5-0.4-3.1-0.4-4.3c0-1,1-1.6,2.9-1.6C367.2,144.1,367.2,145.2,368.8,145.2 M317.2,156.7c5.2-1.7,9.9-4.4,9.9-9
			c0-2.4-1.2-3.4-3.5-3.4c-2.9,0-5.8,2.2-7.5,3.9c-2.9,2.8-5.8,6.3-8.2,10.6C309.8,158.7,313.7,157.8,317.2,156.7 M322.2,172.2
			c-3.5,4.6-9,8.9-15.9,8.9c-5.3,0-8.4-3.8-8.4-8.6c0-15,16.5-30.8,27.6-30.8c3.8,0,6.5,1.4,6.5,5.4c0,5.9-5.1,9-14.3,11.8
			c-2.6,0.8-8.3,2-11,2.6c-1.2,2-2.8,6-2.8,9.2c0,4.3,2.1,6.8,6,6.8c4.5,0,8.8-3.5,11.1-6.3C321.7,170.5,322.9,171.5,322.2,172.2
			 M297.8,130.4c0,0.2-0.1,0.8-0.3,1.3c-6.8,14.7-13.5,29.3-20,44.1c-0.3,0.8-1,2.3-1,3.3c0,1.3,0.9,2.3,2.3,2.3
			c0.7,0,1.6-0.2,2.1-0.5c3.7-1.5,7.5-5.5,9.8-8.9c0.5-0.8-0.4-1.4-1-0.9c-0.9,0.8-3.5,4.3-6.3,5.9c-0.5,0.2-1,0.2-0.7-0.8
			l20.9-46.4c0.3-0.8,0.5-1.3,0.5-1.8c0-0.6-0.4-0.8-1-0.8c-1,0-2.2,0.3-3.7,0.4c-1.2,0.1-3.4,0.3-5.3,0.4c-0.5,0-0.8,0.5-0.8,0.8
			c0,0.5,0.4,0.7,0.9,0.7c1,0,2,0,3.1,0.3C297.7,129.9,297.8,130.1,297.8,130.4 M334.5,98.4c0-5.1,3.8-5.6,7-5.9
			c1.3-0.2,1.5-2.2-0.3-2.2h-25.3c-1.8,0-1.8,2.3,0,2.4c5,0.3,9,1.3,9,6.1v9.1c0,2-1,3.4-2.1,4.3c-4.4,3.7-10,3.9-13.3,3.9
			c-16,0-23.2-13.9-23.2-27.7c0-11.2,5.7-28.8,24.2-28.8c16.6,0,22.6,10.8,24.7,14.9c0.7,1.3,2.3,1,2.3,0V61.3c0-1.3-1.8-1.5-2.3,0
			c-0.3,1.5-1.3,2.5-2.6,2.5c-1,0-2.2-0.8-2.7-1.1c-5-3.2-9.8-5.7-19.3-5.7c-15.4,0-34.4,7.7-34.4,31.1c0,23.6,17.8,30.8,33.4,30.8
			c15.3,0,23.3-7.8,24.8-8.8L334.5,98.4L334.5,98.4z M279.1,130.4c0,0.2-0.1,0.8-0.3,1.3c-6.8,14.7-13.5,29.3-20,44.1
			c-0.3,0.8-1,2.3-1,3.3c0,1.3,0.9,2.3,2.3,2.3c0.7,0,1.6-0.2,2.1-0.5c3.7-1.5,7.5-5.5,9.8-8.9c0.5-0.8-0.4-1.4-1-0.9
			c-0.9,0.8-3.5,4.3-6.3,5.9c-0.5,0.2-1,0.2-0.7-0.8l20.9-46.4c0.3-0.8,0.5-1.3,0.5-1.8c0-0.6-0.4-0.8-1-0.8c-1,0-2.2,0.3-3.7,0.4
			c-1.3,0.1-3.4,0.3-5.4,0.4c-0.5,0-0.8,0.5-0.8,0.8c0,0.5,0.4,0.7,0.9,0.7c1,0,2,0,3.1,0.3C279.1,129.9,279.1,130.1,279.1,130.4
			 M249.4,143c-7.9,0-19.3,18.8-19.3,30.3c0,3,1.3,5.3,4.5,5.3c7.8,0,19.4-19.2,19.4-29.3C254,146.2,253.2,143,249.4,143
			 M247.7,140.6c8,0,9.5,7,9.5,13.5c0,10.4-9.5,26.9-21,26.9c-7.3,0-10-5.9-10-11.9C226.2,154.8,236.5,140.6,247.7,140.6
			 M207.4,57.3c-1.8,0-1.8,1.8-0.8,2c1.9,0.4,5.9,0.8,5.9,6c0.1,12.5,0.1,28.8-0.4,42c-0.1,4.8-1.5,8.8-5.6,9.3
			c-1.5,0.1-1.5,1.8-0.5,1.8h18.1c1,0,1.3-1.6,0.1-1.8c-2.8-0.5-7.3-0.5-7.6-9.3c-0.4-8.5-0.7-40.8-0.7-40.8l45.3,50.4h3.8
			c0,0,0-47.1,0.3-50.7c0.2-4.2,1.7-6.4,6.2-6.8c2.3-0.2,1.8-2.2,0.3-2.2h-18.4c-2.2,0-1.7,2-0.7,2c2,0.3,8.3,1,8.5,7
			c0.2,8.8,0.7,36.1,0.7,36.1l-40.3-45.1C221.7,57.3,207.4,57.3,207.4,57.3z M223.7,145.7c0.5,0,0.8-0.3,1-0.8l4-12.8
			c0.2-0.8-0.1-1.3-0.8-1.3c-0.3,0-0.6,0.1-0.8,0.3c-0.8,0.8-1.7,1.5-2.4,1.5c-0.4,0-0.8-0.3-1.2-0.6c-3.6-4.4-9.4-5.1-12.1-5.1
			c-12.8,0-23.8,8.4-30.3,18.6c-3.9,6.1-5.9,12.8-5.9,19.4c0,10.5,7.3,16.5,16.8,16.5c4.3,0,7.5-0.5,13.3-2.9
			c1.3-0.5,2.7-1.1,3.5-1.1c1.4,0,1.5,2.1,1.7,4c0,0.8,0.5,1,1,1c0.3,0,0.8-0.2,1-0.7l5.4-15.3c0.4-1.3-0.1-1.8-0.6-1.8
			c-0.8,0-1.2,0.3-1.8,1.3c-2.4,3.8-4.1,6.2-12.5,10.3c-3.5,1.7-7.6,2.7-10.9,2.7c-7.1,0-9.9-5.4-9.9-12.3c0-9,4.3-18.5,10.8-26.3
			c4.2-5.2,10.5-11,18-11c7.1,0,12.4,5.3,11.6,15C222.4,145.2,223,145.7,223.7,145.7 M191.3,108.9V66.3c0-5.3,3.8-6.8,7.8-7
			c1.5,0,1.8-2-0.2-2h-25.1c-1.8,0-2,1.9-0.3,2c3.8,0.4,8.3,2.3,8.3,7v42.5c0,4.8-1.8,7.8-7.3,7.8c-2.2,0-1.7,1.8,0,1.8h24.6
			c1.3,0,1.6-1.8-0.5-1.8C193.3,116.6,191.3,113.1,191.3,108.9 M132,66.5c0-1.9-0.8-3.8-3.3-4.7c-2.1-0.8-4-1-6.1-1.3
			c-3-0.5-2.4-3.4,0.3-3.4c1.8,0,10.1,0.7,20.1,0.7c5.8,0,14-0.3,18.1-0.5c2.5-0.2,2.8,2.5,1,3s-10,2.5-24.8,16
			c-15.3,14-35,34.9-35,34.9s44.3,52.8,52.1,59.1c8,6.5,13.5,7,19.6,7.5c1.5,0.1,2,3,0,3h-34.6c0,0-42.9-51.8-49.9-56.6
			c-1.2-0.8-4.3-1.8-4.5,1.8c-0.3,3.3-0.5,30.8,0.2,36.8c0.8,6,3.3,14.8,17.6,14.8c1.8,0,2.8,3.3,0.3,3.3
			c-8.4-0.4-14.8-0.4-25.2-0.4c-9,0-21.6,0.4-23.4,0.4c-3,0-3-2.8-0.3-3c4-0.3,13.5-0.8,14.1-16.1c0.7-15.8,0.3-82.3,0-89.6
			c-0.1-5-4.3-11.8-15.4-11.8c-1.8,0-1.5-3,0.5-3h47.1c1.8,0,2.8,2.9-0.2,3.2s-14.5,0.6-14.8,15.9c-0.4,15.3-0.4,39-0.4,40
			c0,1.3,0.5,2.5,2.3,1.3c5.4-3.7,21.6-19.5,33.6-33c4.8-5.3,8-10,10.3-14.4C131.5,69.3,132,68,132,66.5"/>
		<path d="M344.5,201.3c-1,0-1.3,1.8,0.1,1.8c1.5,0,4.7,0.4,4.7,5l-0.3,37.1c0,4-1.4,7.4-5.2,7.4c-1.2,0-1.2,1.7-0.2,1.7h15.5
			c1,0,1-1.7-0.2-1.7c-2.3,0-6.2-1-6.3-7.4l-0.3-37.8c0,0,39.6,46.6,39.9,46.8h2.7l0.3-44.6c0-4.4,1.9-6.8,6.7-6.8c1,0,1-1.5,0-1.5
			h-17.3c-1,0-1,1.5,0,1.5c1.8,0,7.1,0.3,7.2,6.1l0.4,32.5l-34-40.1L344.5,201.3L344.5,201.3z M296.7,227.4c0-13.5,6.3-24,17.8-24
			c10.3,0,18.1,9.9,18.1,24c0,17.3-7,24.9-18.1,24.9C303.7,252.3,296.7,241.9,296.7,227.4 M314.5,254.7c15.5,0,26.6-10.8,26.6-27.3
			c0-14.5-10.8-26.3-26.6-26.3c-15.4,0-26.4,12-26.4,26.3C288.1,242.9,298.5,254.7,314.5,254.7 M240.4,208.4c0-4.8,2.8-5,9.3-5
			c11.3,0,22.6,5.6,22.6,23.5c0,17.4-9.5,24.8-22.1,24.8h-2.7c-3.3,0-7.1-0.7-7.1-7.3L240.4,208.4L240.4,208.4z M227.3,201
			c-1.8,0-1.4,2-0.4,2c2,0,5.3,1,5.3,5v37.7c0,4-0.9,6.5-5.7,6.5c-1.2,0-1.2,1.9-0.1,1.9h25.1c11,0,29.3-5.3,29.3-27.1
			c0-22.1-15-26.1-29.6-26.1L227.3,201L227.3,201z M165.1,201.3c-1,0-1.3,1.8,0.1,1.8c1.5,0,4.7,0.4,4.7,5l-0.3,37.1
			c0,4-1.4,7.4-5.2,7.4c-1.3,0-1.3,1.7-0.3,1.7h15.5c1,0,1-1.7-0.2-1.7c-2.3,0-6.2-1-6.3-7.4l-0.3-37.8c0,0,39.6,46.6,39.9,46.8h2.7
			l0.2-44.6c0-4.4,1.9-6.8,6.7-6.8c1,0,1-1.5,0-1.5H205c-1,0-1,1.5,0,1.5c1.8,0,7.1,0.3,7.2,6.1l0.4,32.5l-34-40.1L165.1,201.3
			L165.1,201.3z M116.9,227.4c0-13.5,6.3-24,17.8-24c10.3,0,18.1,9.9,18.1,24c0,17.3-7,24.9-18.1,24.9
			C124,252.3,116.9,241.9,116.9,227.4 M134.7,254.7c15.5,0,26.6-10.8,26.6-27.3c0-14.5-10.8-26.3-26.6-26.3
			c-15.4,0-26.4,12-26.4,26.3C108.3,242.9,118.8,254.7,134.7,254.7 M394.5,283.2H57.7v7.3h336.7L394.5,283.2L394.5,283.2z
			 M394.5,273H57.7v3.2h336.7L394.5,273L394.5,273z M57,201.4h21.6c1.1,0,1.4,1.8,0.1,1.8c-2.1,0-6.4,1-6.4,5.5v37.4
			c0,4.3,2.1,5.8,11.4,5.8c8.9,0,17.4-1.1,21.6-13c0.3-1,1.9-0.9,1.7,0.6l-2.8,14.8H57.7c-1.6,0-1.3-1.9-0.3-1.9
			c3,0,6.7-1.4,6.7-6.9v-35.9c0-4.6-2.7-6.5-7.2-6.5C55.8,203.1,55.7,201.4,57,201.4"/>
	</g>
</g>
<g>
	<path id="path" d="M72.1,344.5l-5.7,14.2v-14.2h-8.7v39.1h8.7v-16.1l6.2,16.1h9.8l-8.9-21.7l7.6-17.4H72.1z"/>
	<path id="path-3" d="M108.8,383.6V363c0-0.6-0.2-1.1-0.4-1.5c-0.4-0.4-0.8-0.6-1.5-0.6c-1.1,0-1.9,0.6-2.3,1.7
		c-0.6,1.5-0.8,3-0.8,4.5v16.6h-8.1v-29.3h8.1v4.7c0.4-1.5,1.3-2.8,2.3-3.8c1.3-1.1,2.8-1.5,4.2-1.5c0.8,0,1.7,0.2,2.3,0.4
		c0.8,0.2,1.5,0.6,2.1,1.3s1.1,1.3,1.5,2.1c0.4,1.1,0.6,2.1,0.6,3.2v22.9H108.8z"/>
	<path id="path-4" d="M132.6,362.8c0-0.8,0-1.7-0.2-2.5c0-0.6-0.2-1.1-0.4-1.5s-0.4-0.6-0.8-0.6c-0.4-0.2-0.8-0.2-1.3-0.2
		c-0.4,0-0.8,0-1.3,0.2s-0.6,0.4-0.8,0.6c-0.2,0.4-0.4,1.1-0.4,1.5c-0.2,0.8-0.2,1.7-0.2,2.5c0,0.8,0,1.7,0.2,2.5
		c0,0.6,0.2,1.1,0.4,1.5c0.2,0.4,0.4,0.6,0.8,0.6c0.4,0.4,0.8,0.4,1.3,0.4c0.4,0,0.8,0,1.3-0.2c0.4-0.2,0.6-0.4,0.8-0.6
		c0.2-0.4,0.4-1.1,0.4-1.5C132.4,364.7,132.6,363.8,132.6,362.8 M134.5,385.7c0-0.8-0.4-1.5-1.1-1.9c-1.1-0.6-2.3-0.8-3.6-0.6h-3.6
		c-0.4,0.4-0.6,0.6-1.1,1.3c-0.2,0.4-0.4,1.1-0.4,1.5c0,0.8,0.6,1.7,1.3,2.1c1.1,0.6,2.1,0.8,3.4,0.8c0.8,0,1.7,0,2.5-0.2
		c0.6,0,1.1-0.2,1.5-0.6c0.2-0.2,0.6-0.6,0.6-0.8C134.3,386.5,134.5,386.1,134.5,385.7 M141.5,384c0.2,2.5-0.8,5.1-2.8,6.8
		c-2.8,1.7-5.9,2.5-9.3,2.1c-1.3,0-2.8,0-4-0.2c-1.3-0.2-2.3-0.4-3.4-1.1c-0.8-0.4-1.7-1.1-2.3-1.9c-0.6-0.8-0.8-1.9-0.8-3
		c0-0.8,0.2-1.5,0.6-2.1c0.6-0.6,1.3-1.1,1.9-1.5l1.3-0.6l-1.1-0.6c-0.8-0.4-1.5-1.3-2.1-2.1c-0.4-0.8-0.6-1.9-0.6-2.8
		c0-1.3,0.4-2.3,1.1-3.4c0.6-0.8,1.5-1.5,2.3-2.1l0.8-0.6l-0.8-0.8c-0.4-0.4-0.8-0.8-1.1-1.3c-0.4-0.4-0.6-1.1-0.8-1.7
		c-0.2-0.6-0.4-1.3-0.6-1.9s-0.2-1.3-0.2-1.9c-0.2-2.8,0.6-5.3,2.5-7.4c1.9-1.9,4.7-2.8,7.4-2.5c0.8,0,1.5,0,2.3,0.2
		c0.6,0,1.1,0.2,1.7,0.4l1.1-5.1h6.6l-4.5,6.8c1.1,0.8,1.9,1.9,2.5,3.2c0.8,1.5,1.1,3.2,1.1,4.9c0.2,2.5-0.8,4.9-2.3,6.6
		c-1.7,1.7-4.2,2.5-6.8,2.5c-0.6,0-1.3,0-1.9,0s-1.3,0-1.9-0.2c-0.4,0.2-0.8,0.4-1.3,0.6c-0.4,0.2-0.6,0.6-0.6,1.1
		c0,0.6,0.2,1.1,0.8,1.3c0.6,0.2,1.1,0.2,1.7,0.2h4.9c2.3-0.2,4.7,0.6,6.6,2.1C140.9,379.3,141.7,381.7,141.5,384"/>
	<path id="path-5" d="M150.7,353c0,1.7-0.2,3.4-1.1,4.9c-0.8,1.5-2.1,2.5-3.6,3.2c-0.4,0.2-0.8,0.4-1.5,0.4
		c-0.4,0.2-1.1,0.2-1.5,0.2l-0.6-2.8c1.1-0.2,1.9-0.8,2.8-1.5c0.6-0.4,1.1-1.3,1.3-1.9c0.2-0.8,0.2-1.7,0-2.3h-3v-8.7h7.2L150.7,353
		z"/>
	<path id="path-6" d="M173,374.9c0,1.3-0.2,2.8-0.6,4c-0.4,1.1-1.1,2.1-1.9,3c-1.1,0.8-2.1,1.5-3.4,1.7c-1.7,0.4-3.4,0.6-5.3,0.6
		c-2.8,0.2-5.5-0.4-7.9-1.9c-1.7-1.3-2.5-3.4-2.3-5.5c0-0.6,0-1.3,0.2-1.9s0.2-1.1,0.4-1.7l6.2,0.4c-0.2,0.6-0.2,1.3-0.2,1.9
		c0,0.8,0.2,1.7,0.6,2.5c0.6,0.6,1.5,0.8,2.3,0.8c0.4,0,1.1,0,1.5-0.4c0.4-0.2,0.6-0.4,0.8-0.8c0.2-0.2,0.4-0.6,0.4-1.1
		c0-0.2,0.2-0.6,0.2-0.8c0-0.6-0.2-1.5-0.6-1.9c-0.6-0.6-1.5-1.1-2.3-1.5l-3.2-1.5c-0.6-0.4-1.5-0.6-2.1-1.1
		c-0.8-0.4-1.5-1.1-2.1-1.7c-0.6-0.6-1.3-1.5-1.5-2.5c-0.4-1.1-0.6-2.3-0.6-3.4c0-1.3,0.2-2.5,0.8-3.6s1.3-1.9,2.3-2.8
		c1.1-0.8,2.1-1.3,3.2-1.7c1.3-0.4,2.5-0.6,4-0.6c1.3,0,2.5,0.2,3.8,0.4c1.1,0.2,2.1,0.6,3,1.3c0.8,0.6,1.5,1.3,1.9,2.3
		c0.4,1.1,0.8,2.1,0.6,3.2c0,0.4,0,0.8,0,1.5c0,0.4-0.2,0.8-0.4,1.3h-6.2c0-0.2,0.2-0.6,0.2-0.8c0-0.4,0-0.8,0-1.1
		c0-0.6-0.2-1.5-0.6-1.9c-0.6-0.4-1.3-0.6-1.9-0.6c-0.6,0-1.5,0.2-1.9,0.6c-0.4,0.6-0.6,1.3-0.6,1.9c0,0.8,0.2,1.5,0.8,1.9
		c0.6,0.6,1.5,1.1,2.3,1.3l3.8,1.7c0.8,0.4,1.5,0.8,2.3,1.3c0.6,0.4,1.3,1.1,1.9,1.7c0.6,0.6,1.1,1.5,1.3,2.3
		C172.8,372.5,173,373.6,173,374.9"/>
	<path id="path-7" d="M199.3,364.9c0-2.5,0-4.9-0.2-6.6c0-1.5-0.2-3-0.6-4.2c-0.2-0.8-0.6-1.7-1.3-2.3c-0.6-0.4-1.5-0.6-2.1-0.6
		h-1.9v25.5h1.9c0.6,0,1.3-0.2,1.9-0.4c0.6-0.4,1.1-1.1,1.3-1.7c0.4-1.1,0.6-2.3,0.8-3.6C199.3,368.9,199.3,367,199.3,364.9
		 M208,365.9c0,2.3-0.2,4.7-0.6,7c-0.2,1.9-0.8,3.8-1.9,5.5c-0.8,1.5-1.9,2.8-3.4,3.6c-1.7,0.8-3.6,1.5-5.5,1.3h-11.9v-38.9h12.5
		c1.7,0,3.4,0.4,4.7,1.5c1.5,1.1,2.5,2.5,3.4,4.2c1.1,2.1,1.7,4.5,1.9,6.8C207.8,360,208,363,208,365.9"/>
	<path id="path-9" d="M235,362.8c0-0.8,0-1.7-0.2-2.5c0-0.6-0.2-1.1-0.4-1.5s-0.4-0.6-0.8-0.6c-0.4-0.2-0.8-0.2-1.3-0.2
		s-0.8,0-1.3,0.2s-0.6,0.4-0.8,0.6c-0.2,0.4-0.4,1.1-0.4,1.5c0,0.8-0.2,1.7,0,2.5c0,0.8,0,1.7,0.2,2.5c0,0.6,0.2,1.1,0.4,1.5
		s0.4,0.6,0.8,0.6c0.2,0.4,0.6,0.4,1.1,0.4s0.8,0,1.3-0.2c0.4-0.2,0.6-0.4,0.8-0.6c0.2-0.4,0.4-1.1,0.4-1.5
		C235,364.7,235,363.8,235,362.8 M236.9,385.7c0-0.8-0.4-1.5-1.1-1.9c-1.1-0.6-2.3-0.8-3.6-0.6h-3.6c-0.4,0.4-0.6,0.6-1.1,1.3
		c-0.2,0.4-0.4,1.1-0.4,1.5c0,0.8,0.6,1.7,1.3,2.1c1.1,0.6,2.1,0.8,3.4,0.8c0.8,0,1.7,0,2.5-0.2c0.6,0,1.1-0.2,1.5-0.6
		c0.2-0.2,0.6-0.6,0.6-0.8C236.9,386.5,236.9,386.1,236.9,385.7 M244.1,384c0.2,2.5-0.8,5.1-2.8,6.8c-2.8,1.7-5.9,2.5-9.3,2.1
		c-1.3,0-2.8,0-4-0.2c-1.3-0.2-2.3-0.4-3.4-1.1c-0.8-0.4-1.7-1.1-2.3-1.9c-0.6-0.8-0.8-1.9-0.8-3c0-0.8,0.2-1.5,0.6-2.1
		c0.6-0.6,1.3-1.1,1.9-1.5l1.3-0.6l-1.1-0.6c-0.8-0.4-1.5-1.3-2.1-2.1c-0.4-0.8-0.6-1.9-0.6-2.8c0-1.3,0.4-2.3,1.1-3.4
		c0.6-0.8,1.5-1.5,2.3-2.1l0.8-0.6l-0.8-0.8c-0.4-0.4-0.8-0.8-1.1-1.3c-0.4-0.4-0.6-1.1-0.8-1.7c-0.2-0.6-0.4-1.3-0.6-1.9
		c-0.2-0.6-0.2-1.3-0.2-1.9c-0.2-2.8,0.6-5.3,2.5-7.4c1.9-1.9,4.7-2.8,7.4-2.5c0.8,0,1.5,0,2.3,0.2c0.6,0,1.1,0.2,1.7,0.4l0.8-5.1
		h6.6l-4.5,6.8c1.1,0.8,1.9,1.9,2.5,3.2c0.6,1.5,1.1,3.2,0.8,4.9c0.2,2.5-0.8,4.9-2.3,6.6c-1.7,1.7-4.2,2.5-6.8,2.5
		c-0.6,0-1.3,0-1.9,0s-1.3,0-1.9-0.2c-0.4,0.2-0.8,0.4-1.3,0.6c-0.4,0.2-0.6,0.6-0.6,1.1c0,0.6,0.2,1.1,0.8,1.3s1.1,0.2,1.7,0.2h4.9
		c2.3-0.2,4.7,0.6,6.6,2.1C243.5,379.3,244.3,381.7,244.1,384"/>
	<path id="path-11" d="M274.9,382.3c-0.4,0.2-0.8,0.4-1.3,0.6c-0.6,0.2-1.3,0.4-1.9,0.6c-0.8,0.2-1.5,0.2-2.3,0.4
		c-0.8,0-1.5,0.2-2.3,0.2c-1.1,0-1.9,0-2.8-0.2c-0.8-0.2-1.5-0.4-2.1-1.1c-0.6-0.4-1.1-1.1-1.3-1.9c-0.4-0.8-0.4-1.9-0.4-3V360h-4.2
		v-5.7h4.5l0.2-8.1h7.6v8.1h6.2v5.5h-6.2v14.9c0,0.4,0,1.1,0.4,1.3c0.2,0.4,0.4,0.6,0.8,0.8c0.4,0.2,0.8,0.2,1.3,0.4
		c0.4,0,0.8,0,1.3,0c0.6,0,1.1,0,1.7-0.2c0.4-0.2,0.8-0.2,1.3-0.4L274.9,382.3z"/>
	<path id="path-12" d="M291,369.1c-0.4,0.2-0.8,0.4-1.3,0.6c-0.4,0.2-0.8,0.2-1.3,0.4c-0.6,0.2-1.3,0.4-1.7,0.6
		c-0.4,0.2-0.8,0.4-1.1,0.8c-0.2,0.4-0.4,0.8-0.6,1.3c-0.2,0.6-0.2,1.1-0.2,1.7c0,1.1,0.2,2.1,0.6,3c0.4,0.6,1.3,1.1,1.9,1.1
		c0.4,0,0.8,0,1.3-0.2c0.4-0.2,0.8-0.4,1.1-0.8c0.4-0.6,0.6-1.3,0.6-1.9c0.2-1.1,0.2-2.3,0.2-3.4L291,369.1z M301.7,382.7
		c-0.2,0.2-0.6,0.4-0.8,0.4c-0.4,0.2-0.8,0.4-1.3,0.4c-0.4,0.2-1.1,0.2-1.5,0.4c-0.4,0-1.1,0.2-1.7,0.2c-0.8,0-1.7,0-2.5-0.2
		c-0.6-0.2-1.1-0.4-1.5-0.8s-0.6-0.6-0.8-1.3c-0.2-0.4-0.4-1.1-0.4-1.5l-0.4,0.8c-0.4,0.8-1.1,1.5-1.9,1.9c-1.3,0.6-2.5,1.1-3.8,0.8
		c-1.3,0-2.5-0.2-3.6-0.8c-0.8-0.4-1.7-1.1-2.3-1.9c-0.6-0.8-1.1-1.9-1.3-2.8c-0.2-1.1-0.4-2.1-0.4-3.2c-0.2-2.1,0.4-4.2,1.7-5.9
		c1.5-1.7,3.4-2.8,5.5-3l3-0.6c0.6-0.2,1.3-0.2,1.9-0.6c0.4-0.2,0.8-0.4,1.1-0.6c0.2-0.2,0.4-0.6,0.6-1.1s0.2-1.1,0.2-1.5
		c0-1.1-0.2-2.1-0.8-3c-0.6-0.6-1.5-0.8-2.3-0.8c-0.8,0-1.7,0.2-2.5,0.8c-0.6,0.4-1.1,1.3-1.1,2.1c0,0.4,0,0.8,0,1.3
		s0.2,0.8,0.2,1.3l-6.8,0.2c-0.2-0.6-0.2-1.1-0.2-1.5c0-0.6-0.2-1.1,0-1.7c0-1.3,0.2-2.3,0.8-3.4c0.6-0.8,1.3-1.7,2.1-2.3
		c1.1-0.6,2.1-1.1,3.2-1.3c1.3-0.2,2.5-0.4,4-0.4c1.7,0,3.4,0.2,5.1,0.4c1.3,0.2,2.3,0.6,3.4,1.3c0.8,0.4,1.5,1.3,1.9,2.1
		c0.4,0.8,0.6,1.7,0.6,2.8v17c0,0.4,0.2,0.8,0.6,1.3c0.4,0.2,0.8,0.4,1.3,0.4c0.2,0,0.4,0,0.6-0.2L301.7,382.7z"/>
	<path id="path-13" d="M304,344.5h8.1v39.1H304V344.5z"/>
	<path id="path-14" d="M324.6,383.6v-39.1h8.7v31.6h9.8v7.4H324.6z"/>
	<path id="path-15" d="M359.8,369.1c-0.4,0.2-0.8,0.4-1.3,0.6c-0.4,0.2-0.8,0.2-1.3,0.4c-0.6,0.2-1.3,0.4-1.7,0.6
		c-0.4,0.2-0.8,0.4-1.1,0.8s-0.4,0.8-0.6,1.3c-0.2,0.6-0.2,1.1-0.2,1.7c0,1.1,0.2,2.1,0.6,3c0.4,0.6,1.3,1.1,1.9,1.1
		c0.4,0,0.8,0,1.3-0.2c0.4-0.2,0.8-0.4,1.1-0.8c0.4-0.6,0.6-1.3,0.6-1.9c0.2-1.1,0.2-2.3,0.2-3.4L359.8,369.1z M370.2,382.7
		c-0.2,0.2-0.6,0.4-0.8,0.4c-0.4,0.2-0.8,0.4-1.3,0.4c-0.4,0.2-1.1,0.2-1.5,0.4c-0.4,0-1.1,0.2-1.7,0.2c-0.8,0-1.7,0-2.5-0.2
		c-0.6-0.2-1.1-0.4-1.5-0.8s-0.6-0.6-0.8-1.3c-0.2-0.4-0.4-1.1-0.4-1.5l-0.4,0.8c-0.4,0.8-1.1,1.5-1.9,1.9c-1.3,0.6-2.5,1.1-3.8,0.8
		c-1.3,0-2.5-0.2-3.6-0.8c-0.8-0.4-1.7-1.1-2.3-1.9c-0.6-0.8-1.1-1.9-1.3-2.8c-0.2-1.1-0.4-2.1-0.4-3.2c-0.2-2.1,0.4-4.2,1.7-5.9
		c1.5-1.7,3.4-2.8,5.5-3l3-0.6c0.6-0.2,1.3-0.2,1.9-0.6c0.4-0.2,0.8-0.4,1.1-0.6c0.2-0.2,0.4-0.6,0.6-1.1s0.2-1.1,0.2-1.5
		c0-1.1-0.2-2.1-0.8-3c-0.6-0.6-1.5-0.8-2.3-0.8c-0.8,0-1.7,0.2-2.5,0.8c-0.6,0.4-1.1,1.3-1.1,2.1c0,0.4,0,0.8,0,1.3
		s0.2,0.8,0.2,1.3l-6.8,0.2c-0.2-0.6-0.2-1.1-0.2-1.5c0-0.6-0.2-1.1,0-1.7c0-1.3,0.2-2.3,0.8-3.4c0.6-0.8,1.3-1.7,2.1-2.3
		c1.1-0.6,2.1-1.1,3.2-1.3c1.3-0.2,2.5-0.4,4-0.4c1.7,0,3.4,0.2,5.1,0.4c1.3,0.2,2.3,0.6,3.4,1.3c0.8,0.4,1.5,1.3,1.9,2.1
		c0.4,0.8,0.6,1.7,0.6,2.8v17c0,0.4,0.2,0.8,0.6,1.3c0.4,0.2,0.8,0.4,1.3,0.4c0.2,0,0.4,0,0.6-0.2v4.5H370.2z"/>
	<path id="path-16" d="M386.4,369.1c0-1.5,0-2.8-0.2-3.8c0-0.8-0.2-1.9-0.4-2.8c0-0.6-0.4-1.3-0.8-1.7c-0.4-0.2-0.8-0.4-1.3-0.4
		c-1.1,0-1.7,0.6-2.3,1.9c-0.6,2.1-0.8,4.5-0.6,6.8c0,1.5,0,2.8,0.2,4.2c0,0.8,0.2,1.9,0.6,2.8c0.2,0.6,0.4,1.1,0.8,1.5
		c0.4,0.2,0.8,0.4,1.3,0.4c0.4,0,0.8,0,1.3-0.4c0.4-0.4,0.8-0.8,0.8-1.3c0.2-0.8,0.4-1.7,0.6-2.8
		C386.4,372.3,386.4,370.8,386.4,369.1 M394.7,368.5c0,2.3-0.2,4.9-0.4,7.2c-0.2,1.7-0.8,3.4-1.7,4.9c-0.6,1.3-1.7,2.1-3,2.8
		c-1.5,0.6-3,0.8-4.5,0.8c-0.8,0-1.7-0.2-2.5-0.4c-0.6-0.2-1.3-0.6-1.9-1.1c-0.4-0.4-0.8-0.8-1.3-1.5c-0.4-0.6-0.6-1.1-0.8-1.5
		l-1.7,4.2h-3.6v-39.5h8.1v12.7c0.2-0.4,0.4-0.8,0.6-1.3s0.6-0.8,1.1-1.1c0.4-0.4,0.8-0.6,1.5-0.8c0.6-0.2,1.3-0.4,2.1-0.2
		c1.1,0,2.3,0.2,3.4,0.6c1.1,0.6,1.9,1.5,2.5,2.3c0.8,1.5,1.5,3,1.7,4.5C394.5,363.8,394.7,366.2,394.7,368.5"/>
	<path id="path-2" d="M83.8,351.7h8.1v-7.2h-8.1V351.7z M83.8,383.6h8.1v-29.3h-8.1"/>
	<path id="path-2_1_" d="M211,351.7h8.1v-7.2H211V351.7z M211,383.6h8.1v-29.3H211"/>
	<path id="path-2_2_" d="M245.8,351.7h8.1v-7.2h-8.1V351.7z M245.8,383.6h8.1v-29.3h-8.1"/>
</g>
</svg>
